<svg version="1.1" id="Layer_1" xmlns="http://www.w3.org/2000/svg" xmlns:xlink="http://www.w3.org/1999/xlink" x="0px" y="0px"
	 width="100%" viewBox="344 229 1246 707" enable-background="new 344 229 1246 707" xml:space="preserve">

<path fill="#0C0C0A" opacity="1.000000" stroke="none" 
	d="
M967.202332,852.908813 
	C965.036377,852.939209 962.870361,852.996277 960.704407,852.996338 
	C757.544617,853.000366 554.384827,853.000061 351.225037,852.999756 
	C344.001862,852.999756 344.000275,852.997986 344.000244,845.720764 
	C343.999969,642.560974 343.999939,439.401184 344.000244,236.241394 
	C344.000275,229.002274 344.001984,229.000824 351.263000,229.000809 
	C554.422791,229.000549 757.582581,229.000534 960.742371,229.002182 
	C962.575439,229.002197 964.408569,229.025711 966.671326,229.524872 
	C967.090454,230.844543 967.070679,231.677628 967.070679,232.510696 
	C967.069275,437.812286 967.068909,643.113892 967.074646,848.415466 
	C967.074707,849.913208 967.157898,851.411011 967.202332,852.908813 
M735.954102,258.557404 
	C708.456665,253.687317 680.815247,252.105331 652.905212,253.925735 
	C624.056213,255.807373 595.882874,260.939117 568.520264,270.172394 
	C530.505920,282.999969 496.508484,302.721710 467.834656,330.978607 
	C423.371063,374.795685 399.736237,428.798645 391.051636,489.947662 
	C387.430084,515.447510 387.269012,541.035583 388.944061,566.706299 
	C390.837585,595.725403 396.325531,623.982727 406.139313,651.347290 
	C429.629608,716.846985 472.479767,765.437683 534.616333,796.647522 
	C565.420715,812.119934 598.336121,820.843689 632.567566,825.117310 
	C662.359802,828.836792 692.092468,828.775452 721.706543,824.604553 
	C753.639038,820.107117 784.080139,810.437378 812.658630,795.229736 
	C836.060364,782.776978 857.025574,767.181824 875.266907,747.467041 
	C839.541443,704.896179 803.934937,662.467163 768.472839,620.210144 
	C767.881226,620.304749 767.686340,620.280823 767.566711,620.364380 
	C767.021179,620.745422 766.493774,621.152771 765.965271,621.557678 
	C736.635071,644.032166 704.128296,656.126282 666.634094,652.104919 
	C636.864807,648.912109 611.805664,636.809448 593.002563,613.070251 
	C578.118225,594.278564 571.818176,572.304260 570.270813,548.789734 
	C568.609497,523.542236 572.381287,499.313904 585.717346,477.342010 
	C606.524902,443.060394 638.943787,429.625763 677.242737,428.131836 
	C707.325134,426.958405 733.877197,437.569153 757.843750,455.221802 
	C761.813354,458.145630 765.692078,461.192719 769.777222,464.308167 
	C806.882935,422.883942 843.732605,381.745544 881.466919,339.619507 
	C872.016052,330.618042 863.197327,321.520721 853.656494,313.257141 
	C819.911377,284.029938 780.357910,267.042847 735.954102,258.557404 
z"/>
<path fill="#FDC3ED" opacity="1.000000" stroke="none" 
	d="
M967.657471,852.935242 
	C967.157898,851.411011 967.074707,849.913208 967.074646,848.415466 
	C967.068909,643.113892 967.069275,437.812286 967.070679,232.510696 
	C967.070679,231.677628 967.090454,230.844543 967.152039,229.551086 
	C969.201904,229.060150 971.200806,229.002884 973.199646,229.002853 
	C1177.158325,228.998795 1381.116943,228.999069 1585.075562,228.999069 
	C1586.878174,228.999069 1588.680786,228.999054 1590.740479,228.999054 
	C1590.740479,437.001129 1590.740479,644.707458 1590.740479,852.746460 
	C1589.526611,852.828674 1588.256592,852.989990 1586.986694,852.990051 
	C1381.195068,853.000793 1175.403564,853.000122 969.611938,852.998169 
	C969.112183,852.998169 968.612427,852.974365 967.657471,852.935242 
M1558.399658,812.166260 
	C1560.155151,812.166260 1561.910645,812.166260 1563.699707,812.166260 
	C1563.699707,631.092163 1563.699707,450.689117 1563.699707,270.187927 
	C1508.114868,270.187927 1452.755615,270.187927 1396.956421,270.187927 
	C1396.956421,368.107819 1396.956421,465.674255 1396.956421,562.965271 
	C1392.551758,564.795471 1390.880737,562.089661 1389.037720,559.380554 
	C1324.369751,464.322449 1259.657715,369.294159 1195.064697,274.185181 
	C1192.838257,270.906921 1190.551392,269.736908 1186.629639,269.745514 
	C1128.305298,269.873199 1069.980591,269.833710 1011.655884,269.833710 
	C1009.882629,269.833710 1008.109314,269.833679 1006.291626,269.833679 
	C1006.291626,450.875549 1006.291626,631.416809 1006.291626,811.806885 
	C1061.817505,811.806885 1117.045776,811.806885 1172.590576,811.806885 
	C1172.590576,714.164062 1172.590576,616.880249 1172.590576,519.676453 
	C1176.803589,518.226196 1179.108276,519.708496 1181.418457,523.113281 
	C1245.874878,618.112061 1310.465454,713.019836 1374.923828,808.017273 
	C1377.049438,811.150146 1379.182007,812.266357 1382.949341,812.257812 
	C1441.106934,812.126648 1499.265137,812.166260 1558.399658,812.166260 
z"/>
<path fill="#BD89E0" opacity="1.000000" stroke="none" 
	d="
M1126.998535,881.953125 
	C1128.272827,887.179810 1129.540039,891.973633 1130.995361,897.479065 
	C1133.284180,894.182312 1135.155640,891.591064 1136.913696,888.925110 
	C1138.680176,886.246277 1140.250854,886.182678 1142.031616,888.936951 
	C1143.698120,891.514343 1145.544922,893.975098 1147.988159,897.447571 
	C1149.952881,889.886108 1151.719604,883.087280 1153.523193,876.146118 
	C1159.805054,876.146118 1166.111206,876.146118 1172.621948,876.146118 
	C1168.731812,890.014954 1164.834961,903.809753 1161.014038,917.625610 
	C1160.370728,919.952271 1159.216919,920.639893 1156.694824,921.158569 
	C1147.330200,923.084290 1143.059814,917.640808 1139.746948,909.980835 
	C1137.657349,913.084595 1136.019409,915.991394 1133.890991,918.478394 
	C1132.831787,919.715942 1130.897583,920.835815 1129.317627,920.894653 
	C1118.501953,921.297607 1118.679077,921.155884 1115.967407,910.623352 
	C1113.119751,899.562622 1109.878540,888.603149 1106.052734,877.656799 
	C1106.052734,880.958313 1106.052734,884.259827 1106.052734,887.989258 
	C1102.884888,887.989258 1100.137573,887.989258 1097.002563,887.989258 
	C1097.002563,892.888245 1096.702515,897.371704 1097.078979,901.797607 
	C1097.541504,907.235718 1102.325928,905.416077 1105.751465,906.294006 
	C1105.751465,911.649658 1105.751465,917.067749 1105.751465,923.189270 
	C1099.582520,922.729858 1093.467651,922.827698 1087.592407,921.688965 
	C1081.094238,920.429443 1078.195190,914.848206 1078.008789,905.504883 
	C1077.952271,902.674255 1078.000000,899.841553 1078.000000,897.009766 
	C1078.000000,894.345337 1078.000000,891.680847 1078.000000,888.659180 
	C1076.759521,888.266541 1075.479614,887.861389 1073.601318,887.266907 
	C1075.923828,883.620361 1070.471802,877.876892 1077.880493,875.194641 
	C1077.438110,871.421204 1078.097534,868.540894 1083.746582,868.759949 
	C1087.998047,868.924744 1092.322998,867.190430 1097.015137,866.218628 
	C1097.015137,869.412415 1097.015137,872.487976 1097.015137,875.853210 
	C1106.675781,875.853210 1115.954102,875.853210 1125.389160,875.853210 
	C1125.964844,877.889465 1126.478149,879.704834 1126.998535,881.953125 
z"/>
<path fill="#BD89E0" opacity="1.000000" stroke="none" 
	d="
M999.863464,893.284790 
	C1000.436340,890.070679 1000.882263,886.602722 1000.963074,883.126160 
	C1001.098206,877.315186 1001.000000,871.498901 1001.000000,865.343201 
	C1006.899536,865.343201 1012.627625,865.343201 1018.680908,865.343201 
	C1018.680908,883.613037 1018.680908,901.995239 1018.680908,920.995483 
	C1012.505737,920.995483 1006.242432,921.112305 999.991699,920.884338 
	C998.908142,920.844849 997.606018,919.538757 996.865784,918.491821 
	C990.748718,909.839905 984.740295,901.111206 978.017944,891.424377 
	C978.017944,901.891602 978.017944,911.240173 978.017944,920.787231 
	C971.949890,920.787231 966.341003,920.787231 960.364868,920.787231 
	C960.364868,902.481506 960.364868,884.098206 960.364868,865.012268 
	C966.551636,865.012268 972.966858,864.962158 979.379333,865.073669 
	C980.206360,865.088135 981.319641,865.735291 981.792603,866.433350 
	C987.773438,875.261169 993.661011,884.152161 999.863464,893.284790 
z"/>
<path fill="#BD89E0" opacity="1.000000" stroke="none" 
	d="
M862.383606,915.254822 
	C852.493530,924.064331 835.150391,919.232422 830.881042,906.633484 
	C827.825378,897.615784 828.342773,889.406494 833.831909,881.228149 
	C839.198853,873.231934 855.989380,870.260132 862.725586,879.958679 
	C862.939636,878.432617 863.098022,877.303040 863.260742,876.142944 
	C869.164856,876.142944 874.788940,876.142944 880.999939,876.142944 
	C880.999939,889.695984 881.037781,903.115051 880.956726,916.533447 
	C880.945374,918.418152 880.376587,920.303894 880.023987,922.181335 
	C878.244202,931.659851 871.077209,935.078918 862.867676,935.812439 
	C853.820557,936.620728 844.645447,935.996948 835.266052,935.996948 
	C835.266052,931.022095 835.266052,926.427429 835.266052,921.991638 
	C841.873474,921.991638 848.601929,922.487976 855.193542,921.754761 
	C857.945618,921.448669 860.406860,918.528259 863.316528,916.326660 
	C863.693970,915.400330 863.755188,914.943848 863.816406,914.487427 
	C863.338806,914.743225 862.861206,914.999023 862.383606,915.254822 
M849.966736,892.547180 
	C849.389648,895.265320 847.843567,898.272522 848.541016,900.610352 
	C849.102722,902.493103 852.385559,904.713074 854.444885,904.697021 
	C856.800537,904.678833 860.373718,902.857300 861.169739,900.903381 
	C862.153687,898.487976 861.797974,894.412720 860.272583,892.343872 
	C857.836731,889.040405 853.911621,889.142151 849.966736,892.547180 
z"/>
<path fill="#BD89E0" opacity="1.000000" stroke="none" 
	d="
M814.055115,876.000000 
	C817.505432,876.000000 820.475647,876.000000 823.721069,876.000000 
	C823.721069,891.041931 823.721069,905.771057 823.721069,920.750854 
	C817.869812,920.750854 812.109924,920.750854 806.177124,920.750854 
	C806.068909,919.325195 805.964661,917.950928 805.825317,916.114502 
	C800.601196,922.958923 793.816895,923.041931 786.963806,921.358398 
	C778.741272,919.338501 774.314941,913.017334 773.238708,905.231201 
	C772.420410,899.310913 772.612244,892.783936 774.265259,887.080627 
	C778.504639,872.453613 797.675903,869.606262 805.591614,879.542053 
	C806.161743,873.366150 810.791382,876.949890 814.055115,876.000000 
M791.000854,898.505188 
	C791.434021,903.028137 793.897644,905.758362 798.431580,905.931580 
	C802.590454,906.090454 805.174377,903.450684 805.885010,899.619080 
	C806.584961,895.845154 804.620178,893.053833 801.056763,891.546875 
	C796.770935,889.734375 793.238098,891.915955 791.000854,898.505188 
z"/>
<path fill="#BD89E0" opacity="1.000000" stroke="none" 
	d="
M1281.877930,889.930786 
	C1284.230835,885.852844 1286.449829,882.088989 1288.895020,878.478271 
	C1289.605713,877.428406 1290.938965,876.152649 1292.027832,876.113220 
	C1298.263184,875.887634 1304.510742,876.003540 1311.588379,876.003540 
	C1306.764404,883.518982 1302.427002,890.276184 1298.094238,897.026245 
	C1302.724731,904.731140 1307.366211,912.454407 1312.495361,920.989075 
	C1305.449585,920.989075 1299.070435,921.110291 1292.705200,920.867249 
	C1291.670898,920.827759 1290.403442,919.349487 1289.747559,918.238708 
	C1286.905518,913.425232 1284.250488,908.501282 1281.115967,902.879517 
	C1281.115967,909.218811 1281.115967,914.767517 1281.115967,920.655396 
	C1275.109131,920.655396 1269.382568,920.655396 1263.324951,920.655396 
	C1263.324951,902.407532 1263.324951,884.032654 1263.324951,865.328003 
	C1268.929565,865.328003 1274.655518,865.328003 1281.000488,865.328003 
	C1281.000488,872.160828 1280.954346,879.082886 1281.037964,886.003418 
	C1281.055298,887.439697 1281.553711,888.870117 1281.877930,889.930786 
z"/>
<path fill="#BD8AE0" opacity="1.000000" stroke="none" 
	d="
M616.911987,921.055908 
	C598.492493,924.737549 584.875122,919.040894 579.768677,903.049500 
	C574.770813,887.397888 580.284119,871.987976 595.054077,866.133545 
	C605.828430,861.862854 616.767517,862.709290 626.768250,869.225098 
	C630.241089,871.487671 629.232666,874.435364 626.796143,876.573242 
	C623.589417,879.386902 619.927185,881.681458 615.660156,884.780457 
	C608.737122,881.481567 602.940552,881.838501 599.307556,887.201538 
	C596.838867,890.845825 597.556702,897.173340 600.857544,900.349548 
	C604.803345,904.146423 611.096741,905.422119 617.664917,899.985840 
	C621.522766,904.572693 625.380920,909.159912 630.012390,914.666565 
	C625.413086,916.970581 621.378723,918.991638 616.911987,921.055908 
z"/>
<path fill="#BD89E0" opacity="1.000000" stroke="none" 
	d="
M716.277710,920.999634 
	C713.048767,920.257202 713.048767,920.257202 712.890564,914.793518 
	C709.159119,921.430237 703.607361,922.112244 697.391663,922.111267 
	C689.742371,922.110046 684.556946,916.259827 684.181458,909.825623 
	C683.538513,898.807922 684.003906,887.725464 684.003906,876.332275 
	C689.255676,876.332275 695.316040,876.332275 702.000183,876.332275 
	C702.000183,881.164673 701.999939,886.089355 702.000183,891.014038 
	C702.000305,893.843445 701.374023,896.869751 702.182922,899.445251 
	C702.945923,901.874573 704.959595,905.342041 706.884155,905.673157 
	C710.701355,906.329956 711.820679,902.488525 711.919678,899.370911 
	C712.161560,891.757507 711.998657,884.131287 711.998657,876.257568 
	C718.412842,876.257568 724.469849,876.257568 730.764221,876.257568 
	C730.764221,891.118225 730.764221,905.833435 730.764221,920.999939 
	C725.975098,920.999939 721.359558,920.999939 716.277710,920.999634 
z"/>
<path fill="#BD89E0" opacity="1.000000" stroke="none" 
	d="
M656.771362,921.999512 
	C649.679993,922.280273 643.329590,921.971863 637.779602,917.376343 
	C629.194580,910.267456 628.955994,900.823303 630.429321,891.216858 
	C632.251221,879.338379 644.167786,874.052612 653.545776,873.799072 
	C667.895081,873.411194 676.000671,880.926453 678.979126,894.947327 
	C681.735901,907.924744 670.962952,921.056030 656.771362,921.999512 
M656.467041,890.909973 
	C652.412476,888.617126 649.947083,891.004578 648.035339,894.062988 
	C645.884521,897.503845 646.983276,902.393372 650.134766,904.589600 
	C653.321106,906.810242 656.163940,906.267700 658.905334,903.594666 
	C662.553223,900.038025 661.982605,895.225952 656.467041,890.909973 
z"/>
<path fill="#BD89E0" opacity="1.000000" stroke="none" 
	d="
M1194.158081,922.000000 
	C1180.685547,922.063110 1172.953735,911.934631 1171.959839,900.581116 
	C1170.775146,887.049561 1179.605225,876.662354 1188.859375,874.647888 
	C1205.313599,871.066101 1221.332153,878.641663 1221.046753,898.025757 
	C1220.816040,913.689331 1211.860352,921.999634 1194.158081,922.000000 
M1201.448486,904.028992 
	C1202.066528,903.092529 1202.816650,902.216675 1203.279175,901.208862 
	C1205.005005,897.448242 1204.097778,894.056641 1200.994995,891.615051 
	C1197.971436,889.235962 1194.250000,889.862305 1191.797241,892.210754 
	C1189.269653,894.630920 1187.837036,897.996582 1190.265869,901.788086 
	C1193.037720,906.115112 1196.638184,906.362610 1201.448486,904.028992 
z"/>
<path fill="#BD89E0" opacity="1.000000" stroke="none" 
	d="
M932.837036,887.604858 
	C933.415649,892.164368 933.864014,896.330444 934.347107,900.818726 
	C923.654358,900.818726 913.720398,900.818726 903.720520,900.818726 
	C905.305176,906.988525 909.569153,908.802856 914.716675,906.125488 
	C916.942749,904.967651 919.589600,904.310120 922.103943,904.087402 
	C925.883057,903.752808 929.713745,904.000366 934.033875,904.000366 
	C933.415649,911.391052 929.604309,916.321533 923.764954,919.599243 
	C915.793396,924.073853 896.412537,923.861084 889.875916,912.374756 
	C882.707520,899.778259 884.234985,878.767395 902.934753,874.831482 
	C915.744690,872.135315 926.319519,872.885498 932.837036,887.604858 
M913.742065,889.338074 
	C909.660522,888.697815 905.582153,888.064575 903.966431,893.795837 
	C908.656311,893.795837 913.044495,893.795837 918.770874,893.795837 
	C916.744690,892.056702 915.516541,891.002563 913.742065,889.338074 
z"/>
<path fill="#BD89E0" opacity="1.000000" stroke="none" 
	d="
M1029.718262,915.221191 
	C1022.815491,905.273132 1021.744995,895.103638 1027.183472,884.580933 
	C1030.009277,879.112976 1034.528320,875.701294 1040.773315,874.651978 
	C1048.350586,873.378967 1055.909302,872.970276 1062.607666,877.340759 
	C1070.884155,882.741028 1072.281616,891.251160 1071.946411,900.732300 
	C1061.775879,900.732300 1051.686768,900.732300 1041.517090,900.732300 
	C1042.863770,907.158936 1048.043091,908.987000 1053.171753,905.443359 
	C1054.515381,904.515015 1056.447388,904.132996 1058.132446,904.063293 
	C1062.610840,903.878174 1067.101929,904.000427 1071.821045,904.000427 
	C1070.468994,912.919189 1065.668579,918.829651 1057.319214,920.883545 
	C1047.578247,923.279785 1037.874146,923.432800 1029.718262,915.221191 
M1054.966553,892.804382 
	C1053.999390,888.719421 1050.659790,888.563354 1047.691528,889.143799 
	C1045.296509,889.612183 1043.150269,891.352539 1040.893677,892.528564 
	C1041.124634,892.903320 1041.355713,893.278015 1041.586670,893.652771 
	C1045.978027,893.652771 1050.369263,893.652771 1054.966553,892.804382 
z"/>
<path fill="#BD89E0" opacity="1.000000" stroke="none" 
	d="
M1321.076660,920.999695 
	C1318.605957,920.999695 1316.625610,920.999695 1314.323730,920.999695 
	C1314.323730,917.386108 1314.323730,913.989746 1314.323730,909.484375 
	C1322.161865,909.484375 1330.090088,909.484375 1338.018311,909.484375 
	C1338.070679,908.755066 1338.123047,908.025696 1338.175415,907.296387 
	C1336.383423,906.864197 1334.609741,906.181824 1332.795776,906.048218 
	C1327.960327,905.692078 1323.023315,906.824585 1318.455688,903.878418 
	C1314.418335,901.274170 1311.032104,894.129578 1312.039673,889.022034 
	C1313.443115,881.908447 1318.357056,876.249268 1324.089478,876.078857 
	C1333.544312,875.797729 1343.013550,876.002625 1352.736450,876.002625 
	C1352.736450,879.736511 1352.736450,883.131348 1352.736450,887.509094 
	C1344.851440,887.509094 1337.087524,887.509094 1329.323486,887.509094 
	C1329.289429,888.319336 1329.255493,889.129639 1329.221436,889.939880 
	C1333.431641,890.293396 1337.647827,890.984863 1341.850464,890.911072 
	C1346.656372,890.826721 1350.600464,892.183105 1353.489868,896.006653 
	C1357.548584,901.377991 1358.100586,907.277100 1355.165161,913.273560 
	C1352.658691,918.393494 1348.431396,921.080139 1342.559204,921.017395 
	C1335.562622,920.942688 1328.564453,920.999695 1321.076660,920.999695 
z"/>
<path fill="#BD89E0" opacity="1.000000" stroke="none" 
	d="
M767.477783,895.741150 
	C760.474976,894.559937 756.225647,898.068481 756.029541,904.910156 
	C755.882141,910.052002 756.000305,915.201477 756.000305,920.673035 
	C750.064392,920.673035 744.334412,920.673035 738.300171,920.673035 
	C738.300171,906.008545 738.300171,891.285400 738.300171,876.280273 
	C743.717590,876.280273 749.129822,876.280273 754.948242,876.280273 
	C754.948242,877.992432 754.948242,879.705261 754.948242,882.022827 
	C759.094299,877.073914 762.590576,872.270386 769.991821,874.492126 
	C769.991821,880.884460 770.047974,887.506653 769.899292,894.124146 
	C769.885437,894.741333 768.575012,895.329346 767.477783,895.741150 
z"/>
<path fill="#BD89E0" opacity="1.000000" stroke="none" 
	d="
M1226.000000,912.942993 
	C1226.000000,900.499878 1226.000000,888.547852 1226.000000,876.298828 
	C1231.667114,876.298828 1237.064453,876.298828 1242.880615,876.298828 
	C1242.880615,878.310608 1242.880615,880.339966 1242.880615,882.369324 
	C1246.243408,876.689453 1250.630371,873.460754 1257.652832,874.106323 
	C1257.652832,881.323242 1257.652832,888.533508 1257.652100,895.746460 
	C1248.530029,893.438232 1244.629150,898.029358 1244.050415,906.967834 
	C1243.762329,911.419922 1244.000244,915.906067 1244.000244,920.687378 
	C1238.039062,920.687378 1232.315186,920.687378 1226.000000,920.687378 
	C1226.000000,918.295471 1226.000000,915.864685 1226.000000,912.942993 
z"/>
<path fill="#fdc3ed" opacity="1.000000" stroke="none" 
	d="
M736.369019,258.674377 
	C780.357910,267.042847 819.911377,284.029938 853.656494,313.257141 
	C863.197327,321.520721 872.016052,330.618042 881.466919,339.619507 
	C843.732605,381.745544 806.882935,422.883942 769.777222,464.308167 
	C765.692078,461.192719 761.813354,458.145630 757.843750,455.221802 
	C733.877197,437.569153 707.325134,426.958405 677.242737,428.131836 
	C638.943787,429.625763 606.524902,443.060394 585.717346,477.342010 
	C572.381287,499.313904 568.609497,523.542236 570.270813,548.789734 
	C571.818176,572.304260 578.118225,594.278564 593.002563,613.070251 
	C611.805664,636.809448 636.864807,648.912109 666.634094,652.104919 
	C704.128296,656.126282 736.635071,644.032166 765.965271,621.557678 
	C766.493774,621.152771 767.021179,620.745422 767.566711,620.364380 
	C767.686340,620.280823 767.881226,620.304749 768.472839,620.210144 
	C803.934937,662.467163 839.541443,704.896179 875.266907,747.467041 
	C857.025574,767.181824 836.060364,782.776978 812.658630,795.229736 
	C784.080139,810.437378 753.639038,820.107117 721.706543,824.604553 
	C692.092468,828.775452 662.359802,828.836792 632.567566,825.117310 
	C598.336121,820.843689 565.420715,812.119934 534.616333,796.647522 
	C472.479767,765.437683 429.629608,716.846985 406.139313,651.347290 
	C396.325531,623.982727 390.837585,595.725403 388.944061,566.706299 
	C387.269012,541.035583 387.430084,515.447510 391.051636,489.947662 
	C399.736237,428.798645 423.371063,374.795685 467.834656,330.978607 
	C496.508484,302.721710 530.505920,282.999969 568.520264,270.172394 
	C595.882874,260.939117 624.056213,255.807373 652.905212,253.925735 
	C680.815247,252.105331 708.456665,253.687317 736.369019,258.674377 
z"/>
<path fill="#000000" opacity="1.000000" stroke="none" 
	d="
M1557.911377,812.166260 
	C1499.265137,812.166260 1441.106934,812.126648 1382.949341,812.257812 
	C1379.182007,812.266357 1377.049438,811.150146 1374.923828,808.017273 
	C1310.465454,713.019836 1245.874878,618.112061 1181.418457,523.113281 
	C1179.108276,519.708496 1176.803589,518.226196 1172.590576,519.676453 
	C1172.590576,616.880249 1172.590576,714.164062 1172.590576,811.806885 
	C1117.045776,811.806885 1061.817505,811.806885 1006.291626,811.806885 
	C1006.291626,631.416809 1006.291626,450.875549 1006.291626,269.833679 
	C1008.109314,269.833679 1009.882629,269.833710 1011.655884,269.833710 
	C1069.980591,269.833710 1128.305298,269.873199 1186.629639,269.745514 
	C1190.551392,269.736908 1192.838257,270.906921 1195.064697,274.185181 
	C1259.657715,369.294159 1324.369751,464.322449 1389.037720,559.380554 
	C1390.880737,562.089661 1392.551758,564.795471 1396.956421,562.965271 
	C1396.956421,465.674255 1396.956421,368.107819 1396.956421,270.187927 
	C1452.755615,270.187927 1508.114868,270.187927 1563.699707,270.187927 
	C1563.699707,450.689117 1563.699707,631.092163 1563.699707,812.166260 
	C1561.910645,812.166260 1560.155151,812.166260 1557.911377,812.166260 
z"/>
<path fill="#000000" opacity="1.000000" stroke="none" 
	d="
M850.248840,892.261719 
	C853.911621,889.142151 857.836731,889.040405 860.272583,892.343872 
	C861.797974,894.412720 862.153687,898.487976 861.169739,900.903381 
	C860.373718,902.857300 856.800537,904.678833 854.444885,904.697021 
	C852.385559,904.713074 849.102722,902.493103 848.541016,900.610352 
	C847.843567,898.272522 849.389648,895.265320 850.248840,892.261719 
z"/>
<path fill="#000000" opacity="1.000000" stroke="none" 
	d="
M862.549316,915.466919 
	C862.861206,914.999023 863.338806,914.743225 863.816406,914.487427 
	C863.755188,914.943848 863.693970,915.400330 863.357910,915.964355 
	C862.960388,915.940979 862.837708,915.809998 862.549316,915.466919 
z"/>
<path fill="#000000" opacity="1.000000" stroke="none" 
	d="
M791.002686,898.105957 
	C793.238098,891.915955 796.770935,889.734375 801.056763,891.546875 
	C804.620178,893.053833 806.584961,895.845154 805.885010,899.619080 
	C805.174377,903.450684 802.590454,906.090454 798.431580,905.931580 
	C793.897644,905.758362 791.434021,903.028137 791.002686,898.105957 
z"/>
<path fill="#000000" opacity="1.000000" stroke="none" 
	d="
M656.858154,890.976807 
	C661.982605,895.225952 662.553223,900.038025 658.905334,903.594666 
	C656.163940,906.267700 653.321106,906.810242 650.134766,904.589600 
	C646.983276,902.393372 645.884521,897.503845 648.035339,894.062988 
	C649.947083,891.004578 652.412476,888.617126 656.858154,890.976807 
z"/>
<path fill="#000000" opacity="1.000000" stroke="none" 
	d="
M1201.171021,904.317078 
	C1196.638184,906.362610 1193.037720,906.115112 1190.265869,901.788086 
	C1187.837036,897.996582 1189.269653,894.630920 1191.797241,892.210754 
	C1194.250000,889.862305 1197.971436,889.235962 1200.994995,891.615051 
	C1204.097778,894.056641 1205.005005,897.448242 1203.279175,901.208862 
	C1202.816650,902.216675 1202.066528,903.092529 1201.171021,904.317078 
z"/>
<path fill="#000000" opacity="1.000000" stroke="none" 
	d="
M914.015259,889.643250 
	C915.516541,891.002563 916.744690,892.056702 918.770874,893.795837 
	C913.044495,893.795837 908.656311,893.795837 903.966431,893.795837 
	C905.582153,888.064575 909.660522,888.697815 914.015259,889.643250 
z"/>
<path fill="#000000" opacity="1.000000" stroke="none" 
	d="
M1054.863525,893.228577 
	C1050.369263,893.652771 1045.978027,893.652771 1041.586670,893.652771 
	C1041.355713,893.278015 1041.124634,892.903320 1040.893677,892.528564 
	C1043.150269,891.352539 1045.296509,889.612183 1047.691528,889.143799 
	C1050.659790,888.563354 1053.999390,888.719421 1054.863525,893.228577 
z"/>
</svg>